<svg width="541" height="295" viewBox="0 0 541 295" fill="none" xmlns="http://www.w3.org/2000/svg">
<g clip-path="url(#clip0_66_2403)">
<rect width="541" height="295" rx="16" fill="#828282"/>
<path d="M-190.986 -144.513C-192.506 -143.783 -193.741 -142.882 -194.982 -141.798C-196.19 -140.744 -197.534 -139.4 -199.207 -137.727L-199.27 -137.665L-379.836 42.902L-379.899 42.9641C-381.572 44.6375 -382.916 45.9811 -383.881 47.1003C-384.873 48.2507 -385.583 49.293 -385.855 50.3564C-386.29 52.0543 -385.864 53.6435 -384.639 54.8964C-383.871 55.6811 -382.736 56.2291 -381.301 56.7292C-379.905 57.2157 -378.07 57.7075 -375.784 58.32L-375.699 58.3427L859.083 389.202L859.168 389.224C861.454 389.837 863.289 390.329 864.863 390.638C866.48 390.955 868 391.119 869.681 390.99C872.364 390.785 875.117 390.047 877.544 388.883C879.064 388.154 880.299 387.253 881.54 386.169C882.748 385.115 884.092 383.771 885.765 382.098L885.827 382.036L1066.39 201.469L1066.46 201.407C1068.13 199.733 1069.47 198.39 1070.44 197.27C1071.43 196.12 1072.14 195.078 1072.41 194.014C1072.85 192.316 1072.42 190.727 1071.2 189.474C1070.43 188.69 1069.29 188.142 1067.86 187.641C1066.46 187.155 1064.63 186.663 1062.34 186.051L1062.26 186.028L-172.525 -144.831L-172.61 -144.854C-174.896 -145.466 -176.732 -145.958 -178.305 -146.267C-179.922 -146.585 -181.442 -146.748 -183.123 -146.62C-185.807 -146.414 -188.559 -145.677 -190.986 -144.513Z" fill="#303030" stroke="white" stroke-width="4.07562"/>
<path d="M-228.645 -61.3223L962.822 257.93L961.281 259.471L-230.186 -59.7813L-228.645 -61.3223Z" fill="black" fill-opacity="0.1"/>
<path d="M79.3068 -7.30668L78.5196 -6.51947L71.7774 -8.32602L72.4662 -9.01483L78.5909 -10.8607C79.3443 -11.0878 79.9516 -11.2884 80.4128 -11.4626C80.8821 -11.6389 81.2548 -11.8082 81.5309 -11.9707C81.8151 -12.1353 82.0556 -12.316 82.2524 -12.5128C82.501 -12.7614 82.6547 -13.0048 82.7134 -13.243C82.7804 -13.4833 82.7398 -13.6999 82.5918 -13.8928C82.4438 -14.0857 82.1788 -14.2333 81.7968 -14.3357C81.3393 -14.4583 80.8917 -14.495 80.4539 -14.446C80.0243 -14.3991 79.6184 -14.2802 79.2361 -14.0893C78.8539 -13.8984 78.5126 -13.6528 78.2122 -13.3524L76.9034 -13.7031C77.328 -14.1278 77.8438 -14.4821 78.4507 -14.766C79.0575 -15.05 79.7145 -15.2285 80.4216 -15.3017C81.1322 -15.3784 81.853 -15.3188 82.584 -15.1229C83.2349 -14.9485 83.7068 -14.7148 83.9999 -14.4217C84.2963 -14.1322 84.4153 -13.8026 84.3567 -13.433C84.3063 -13.0657 84.0791 -12.68 83.6752 -12.2761C83.4542 -12.0551 83.1779 -11.8446 82.8462 -11.6445C82.5228 -11.4466 82.1592 -11.2595 81.7556 -11.0831C81.3566 -10.9054 80.9305 -10.7394 80.4772 -10.5851C80.0285 -10.4295 79.5669 -10.2818 79.0921 -10.1419L74.1423 -8.6905L79.3068 -7.30668ZM87.4568 -5.12289L86.6696 -4.33569L79.9274 -6.14224L80.6162 -6.83105L86.7409 -8.67687C87.4943 -8.90402 88.1016 -9.10466 88.5628 -9.27878C89.0321 -9.45509 89.4048 -9.62446 89.6809 -9.78689C89.9651 -9.95151 90.2056 -10.1322 90.4024 -10.329C90.651 -10.5776 90.8047 -10.821 90.8634 -11.0592C90.9304 -11.2995 90.8898 -11.5161 90.7418 -11.709C90.5938 -11.9019 90.3288 -12.0495 89.9468 -12.1519C89.4893 -12.2745 89.0417 -12.3112 88.6039 -12.2622C88.1743 -12.2153 87.7684 -12.0964 87.3861 -11.9055C87.0039 -11.7147 86.6626 -11.469 86.3622 -11.1686L85.0534 -11.5193C85.478 -11.944 85.9938 -12.2983 86.6007 -12.5822C87.2075 -12.8662 87.8645 -13.0447 88.5716 -13.1179C89.2822 -13.1946 90.003 -13.135 90.734 -12.9391C91.3849 -12.7647 91.8568 -12.531 92.1499 -12.238C92.4463 -11.9484 92.5653 -11.6188 92.5067 -11.2493C92.4563 -10.8819 92.2291 -10.4962 91.8252 -10.0923C91.6042 -9.8713 91.3279 -9.66078 90.9962 -9.46071C90.6728 -9.26282 90.3092 -9.07568 89.9056 -8.89928C89.5066 -8.72161 89.0805 -8.55562 88.6272 -8.40129C88.1785 -8.24569 87.7169 -8.09798 87.2421 -7.95813L82.2923 -6.50672L87.4568 -5.12289ZM88.7406 -4.42429C88.9029 -4.58657 89.1077 -4.70462 89.3549 -4.77846C89.6104 -4.85448 89.8701 -4.85711 90.1342 -4.78634C90.3984 -4.71557 90.5418 -4.60489 90.5647 -4.4543C90.5957 -4.3059 90.5301 -4.15057 90.3678 -3.98829C90.209 -3.82947 90.0036 -3.71377 89.7516 -3.6412C89.5043 -3.56736 89.2486 -3.56583 88.9845 -3.6366C88.7204 -3.70737 88.5728 -3.81696 88.5418 -3.96535C88.5155 -4.11249 88.5818 -4.26547 88.7406 -4.42429ZM102.869 -5.53724L101.72 -4.3875C101.102 -3.76948 100.505 -3.26834 99.9293 -2.88411C99.3537 -2.49987 98.7949 -2.21619 98.253 -2.03306C97.711 -1.84994 97.1809 -1.75339 96.6626 -1.74342C96.1525 -1.73564 95.6475 -1.79873 95.1475 -1.93269C94.7514 -2.03884 94.4221 -2.17304 94.1597 -2.33527C93.8974 -2.4975 93.7112 -2.69405 93.6012 -2.92491C93.4993 -3.15795 93.4836 -3.42923 93.5538 -3.73873C93.6241 -4.04823 93.7945 -4.40097 94.0649 -4.79694C94.3353 -5.19291 94.7173 -5.63777 95.2111 -6.1315L96.3608 -7.28124C96.9788 -7.89927 97.5722 -8.39695 98.1409 -8.77428C98.7143 -9.15035 99.2685 -9.42649 99.8036 -9.60271C100.342 -9.78238 100.865 -9.87438 101.371 -9.87871C101.883 -9.88178 102.386 -9.81696 102.881 -9.68427C103.282 -9.57685 103.614 -9.44202 103.876 -9.27979C104.147 -9.11974 104.336 -8.92665 104.445 -8.70051C104.557 -8.47782 104.578 -8.21408 104.506 -7.9093C104.443 -7.60671 104.277 -7.25915 104.01 -6.86662C103.744 -6.4741 103.363 -6.03098 102.869 -5.53724ZM100.248 -4.58472L101.714 -6.05038C102.052 -6.38874 102.321 -6.69326 102.52 -6.96392C102.727 -7.23677 102.87 -7.47859 102.949 -7.68939C103.029 -7.90018 103.045 -8.08403 102.999 -8.24094C102.957 -8.39658 102.858 -8.5281 102.703 -8.6355C102.555 -8.74508 102.354 -8.83399 102.099 -8.90224C101.788 -8.98565 101.469 -9.01642 101.142 -8.99455C100.819 -8.97614 100.483 -8.89756 100.135 -8.7588C99.7914 -8.61877 99.4288 -8.41167 99.047 -8.13749C98.6652 -7.86331 98.2619 -7.51388 97.8372 -7.0892L96.3716 -5.62354C96.0332 -5.28518 95.7605 -4.97957 95.5534 -4.70672C95.3511 -4.4326 95.2092 -4.18606 95.1278 -3.9671C95.0498 -3.75159 95.0282 -3.56256 95.063 -3.40001C95.0978 -3.23747 95.1873 -3.09967 95.3314 -2.98664C95.4837 -2.87579 95.6848 -2.78687 95.9348 -2.71989C96.2555 -2.63396 96.581 -2.60365 96.9113 -2.62897C97.2416 -2.65428 97.5819 -2.74041 97.9321 -2.88734C98.2906 -3.03645 98.6601 -3.25046 99.0406 -3.52936C99.4246 -3.81171 99.8273 -4.1635 100.248 -4.58472ZM102.428 -1.13103L102.563 -1.09502C103.317 -0.892813 104.008 -0.806209 104.635 -0.835203C105.262 -0.864196 105.834 -0.975773 106.351 -1.16993C106.868 -1.36409 107.338 -1.61254 107.76 -1.91526C108.186 -2.22145 108.573 -2.5489 108.922 -2.89762L110.077 -4.05253C110.419 -4.39435 110.668 -4.71272 110.826 -5.00764C110.988 -5.3013 111.064 -5.56317 111.055 -5.79326C111.051 -6.02209 110.977 -6.2147 110.835 -6.37111C110.692 -6.52752 110.489 -6.64111 110.225 -6.71189C109.923 -6.79277 109.607 -6.82055 109.276 -6.79523C108.954 -6.7721 108.631 -6.70324 108.307 -6.58865C107.988 -6.4728 107.679 -6.31921 107.38 -6.12789C107.081 -5.93658 106.806 -5.71489 106.554 -5.46285C106.329 -5.23843 106.149 -5.0108 106.014 -4.77996C105.879 -4.54913 105.805 -4.32827 105.791 -4.11739C105.778 -3.9065 105.836 -3.72003 105.967 -3.55798C106.107 -3.39812 106.334 -3.27585 106.65 -3.19118C106.943 -3.11283 107.258 -3.08096 107.595 -3.09558C107.941 -3.11239 108.285 -3.16676 108.628 -3.25869C108.98 -3.35282 109.307 -3.4773 109.612 -3.63215C109.921 -3.78574 110.187 -3.96186 110.409 -4.16051L111.032 -3.9937C110.745 -3.70712 110.384 -3.44486 109.949 -3.2069C109.522 -2.97112 109.058 -2.77595 108.556 -2.62137C108.055 -2.46679 107.551 -2.36974 107.045 -2.3302C106.542 -2.29412 106.074 -2.33421 105.64 -2.45048C105.131 -2.58697 104.762 -2.77764 104.535 -3.02249C104.307 -3.26733 104.194 -3.54283 104.195 -3.84897C104.201 -4.15384 104.294 -4.47054 104.473 -4.79907C104.66 -5.12978 104.907 -5.44878 105.214 -5.75607C105.573 -6.11514 105.978 -6.43346 106.429 -6.711C106.88 -6.98854 107.359 -7.21041 107.866 -7.37661C108.377 -7.54627 108.898 -7.64534 109.428 -7.67384C109.964 -7.70107 110.494 -7.64455 111.017 -7.50427C111.607 -7.3463 112.023 -7.1254 112.265 -6.84155C112.507 -6.55771 112.613 -6.23602 112.583 -5.87649C112.557 -5.51569 112.424 -5.1376 112.184 -4.74221C111.944 -4.34682 111.632 -3.95751 111.249 -3.57426L110.902 -3.22727C110.512 -2.83711 110.08 -2.44954 109.605 -2.06453C109.138 -1.68171 108.625 -1.33322 108.066 -1.01905C107.511 -0.703619 106.908 -0.449545 106.254 -0.256831C105.605 -0.0675694 104.903 0.0332984 104.149 0.0457724C103.403 0.0560575 102.603 -0.0531707 101.749 -0.281912L101.615 -0.317929L102.428 -1.13103ZM109.285 1.08067C109.448 0.918394 109.652 0.800338 109.9 0.726502C110.155 0.650477 110.415 0.64785 110.679 0.71862C110.943 0.789391 111.087 0.90007 111.109 1.05066C111.14 1.19906 111.075 1.35439 110.913 1.51667C110.754 1.67549 110.548 1.79119 110.296 1.86376C110.049 1.9376 109.793 1.93913 109.529 1.86836C109.265 1.79759 109.118 1.688 109.087 1.53961C109.06 1.39247 109.127 1.23949 109.285 1.08067ZM119.972 3.5895L119.185 4.37671L112.443 2.57016L113.131 1.88135L119.256 0.0355219C120.009 -0.191628 120.617 -0.392264 121.078 -0.566385C121.547 -0.742695 121.92 -0.912066 122.196 -1.0745C122.48 -1.23912 122.721 -1.41983 122.918 -1.61663C123.166 -1.86523 123.32 -2.10861 123.379 -2.34677C123.445 -2.58713 123.405 -2.80375 123.257 -2.99663C123.109 -3.1895 122.844 -3.33713 122.462 -3.43949C122.004 -3.56208 121.557 -3.59884 121.119 -3.54978C120.689 -3.50292 120.283 -3.38404 119.901 -3.19315C119.519 -3.00226 119.178 -2.75663 118.877 -2.45624L117.568 -2.80694C117.993 -3.23162 118.509 -3.58592 119.116 -3.86985C119.723 -4.15378 120.38 -4.33234 121.087 -4.40554C121.797 -4.4822 122.518 -4.42258 123.249 -4.2267C123.9 -4.0523 124.372 -3.81859 124.665 -3.52556C124.961 -3.23598 125.08 -2.90641 125.022 -2.53686C124.971 -2.1695 124.744 -1.78384 124.34 -1.37988C124.119 -1.15891 123.843 -0.948384 123.511 -0.748311C123.188 -0.550426 122.824 -0.363284 122.421 -0.186884C122.022 -0.00921928 121.596 0.156778 121.142 0.311108C120.694 0.466701 120.232 0.614419 119.757 0.754261L114.807 2.20568L119.972 3.5895ZM131.564 2.1515L130.415 3.30124C129.796 3.91927 129.2 4.4204 128.624 4.80464C128.048 5.18888 127.49 5.47256 126.948 5.65568C126.406 5.83881 125.876 5.93535 125.357 5.94533C124.847 5.95311 124.342 5.89002 123.842 5.75606C123.446 5.6499 123.117 5.51571 122.855 5.35348C122.592 5.19124 122.406 4.9947 122.296 4.76384C122.194 4.53079 122.178 4.25952 122.249 3.95002C122.319 3.64052 122.489 3.28778 122.76 2.89181C123.03 2.49583 123.412 2.05098 123.906 1.55725L125.056 0.407506C125.674 -0.210521 126.267 -0.708202 126.836 -1.08553C127.409 -1.4616 127.963 -1.73775 128.498 -1.91397C129.037 -2.09364 129.559 -2.18564 130.066 -2.18997C130.577 -2.19303 131.081 -2.12822 131.576 -1.99552C131.977 -1.8881 132.309 -1.75328 132.571 -1.59104C132.841 -1.431 133.031 -1.23791 133.14 -1.01176C133.252 -0.789076 133.272 -0.52534 133.201 -0.220555C133.137 0.0820404 132.972 0.429599 132.705 0.822121C132.438 1.21464 132.058 1.65777 131.564 2.1515ZM128.943 3.10402L130.409 1.63836C130.747 1.3 131.016 0.995489 131.215 0.724826C131.422 0.451974 131.565 0.210151 131.644 -0.000643128C131.723 -0.211437 131.74 -0.395288 131.693 -0.552194C131.652 -0.707836 131.553 -0.839355 131.397 -0.946751C131.25 -1.05634 131.049 -1.14525 130.794 -1.21349C130.483 -1.2969 130.164 -1.32767 129.837 -1.30581C129.513 -1.2874 129.178 -1.20881 128.83 -1.07005C128.486 -0.930027 128.124 -0.722924 127.742 -0.448743C127.36 -0.174561 126.957 0.174869 126.532 0.599548L125.066 2.06521C124.728 2.40357 124.455 2.70917 124.248 2.98203C124.046 3.25614 123.904 3.50268 123.823 3.72164C123.745 3.93715 123.723 4.12618 123.758 4.28873C123.793 4.45128 123.882 4.58907 124.026 4.70211C124.178 4.81296 124.38 4.90187 124.63 4.96885C124.95 5.05479 125.276 5.0851 125.606 5.05978C125.936 5.03446 126.277 4.94834 126.627 4.80141C126.985 4.65229 127.355 4.43828 127.735 4.15939C128.119 3.87703 128.522 3.52525 128.943 3.10402ZM136.555 8.0329L135.768 8.82011L129.026 7.01355L129.714 6.32475L135.839 4.47892C136.592 4.25177 137.2 4.05113 137.661 3.87701C138.13 3.7007 138.503 3.53133 138.779 3.3689C139.063 3.20428 139.304 3.02357 139.5 2.82676C139.749 2.57817 139.903 2.33479 139.962 2.09662C140.028 1.85627 139.988 1.63965 139.84 1.44677C139.692 1.25389 139.427 1.10627 139.045 1.00391C138.587 0.881321 138.14 0.844557 137.702 0.893614C137.272 0.940482 136.866 1.05936 136.484 1.25025C136.102 1.44114 135.761 1.68677 135.46 1.98715L134.151 1.63646C134.576 1.21178 135.092 0.857478 135.699 0.573549C136.306 0.289619 136.963 0.111054 137.67 0.0378533C138.38 -0.0388005 139.101 0.0208144 139.832 0.216698C140.483 0.391098 140.955 0.624812 141.248 0.917842C141.544 1.20742 141.663 1.53698 141.605 1.90653C141.554 2.2739 141.327 2.65956 140.923 3.06352C140.702 3.28449 140.426 3.49501 140.094 3.69509C139.771 3.89297 139.407 4.08011 139.004 4.25651C138.605 4.43418 138.179 4.60018 137.725 4.75451C137.277 4.9101 136.815 5.05782 136.34 5.19766L131.39 6.64908L136.555 8.0329ZM148.458 2.6067L140.876 10.1888L139.567 9.83807L145.952 3.45236L142.609 3.44962L143.474 2.58473L148.252 2.55173L148.458 2.6067Z" fill="white" fill-opacity="0.36"/>
<rect width="61.0211" height="6.53797" rx="3.26899" transform="matrix(0.965926 0.258819 -0.707107 0.707107 179.081 27.4165)" fill="#00C1FF"/>
<path d="M218.967 20.6647L207.015 27.5907L205.395 27.1566L218.723 19.615L219.768 19.8948L218.967 20.6647ZM214.301 29.5428L218.317 20.4906L219.069 19.7075L220.113 19.9873L215.929 29.9791L214.301 29.5428ZM217.34 26.2432L216.388 27.1943L209.662 25.392L210.613 24.4409L217.34 26.2432ZM230.259 22.6448L221.446 31.4575L219.925 31.0499L227.347 23.6278L223.461 23.6246L224.467 22.6193L230.02 22.581L230.259 22.6448Z" fill="white" fill-opacity="0.36"/>
<rect width="61.0211" height="6.53797" rx="3.26899" transform="matrix(0.965926 0.258819 -0.707107 0.707107 242.231 44.3416)" fill="#00C1FF"/>
<path d="M281.051 37.3001L269.099 44.2261L267.479 43.7921L280.807 36.2504L281.852 36.5302L281.051 37.3001ZM276.385 46.1783L280.401 37.1261L281.153 36.3429L282.197 36.6228L278.013 46.6145L276.385 46.1783ZM279.424 42.8786L278.472 43.8297L271.746 42.0274L272.697 41.0763L279.424 42.8786ZM287.981 48.1254L287.066 49.0404L279.23 46.9406L280.03 46.14L287.149 43.9946C288.025 43.7306 288.731 43.4974 289.267 43.295C289.812 43.0901 290.245 42.8932 290.566 42.7044C290.897 42.5131 291.176 42.303 291.405 42.0743C291.694 41.7854 291.872 41.5025 291.941 41.2256C292.018 40.9463 291.971 40.6945 291.799 40.4703C291.627 40.2461 291.319 40.0746 290.875 39.9556C290.344 39.8131 289.823 39.7704 289.314 39.8274C288.815 39.8819 288.343 40.02 287.899 40.2419C287.455 40.4638 287.058 40.7493 286.709 41.0984L285.188 40.6908C285.681 40.1972 286.281 39.7854 286.986 39.4554C287.691 39.1254 288.455 38.9178 289.277 38.8327C290.103 38.7436 290.941 38.8129 291.79 39.0406C292.547 39.2433 293.095 39.515 293.436 39.8555C293.78 40.1921 293.919 40.5752 293.851 41.0047C293.792 41.4317 293.528 41.8799 293.058 42.3495C292.802 42.6063 292.48 42.851 292.095 43.0835C291.719 43.3136 291.296 43.5311 290.827 43.7361C290.364 43.9426 289.868 44.1355 289.341 44.3149C288.82 44.4958 288.283 44.6675 287.732 44.83L281.978 46.517L287.981 48.1254Z" fill="white" fill-opacity="0.36"/>
<rect width="148.194" height="6.53797" rx="3.26899" transform="matrix(0.965926 0.258819 -0.707107 0.707107 305.384 61.2642)" fill="#C2F5FF"/>
<rect width="118.773" height="6.53797" rx="3.26899" transform="matrix(0.965926 0.258819 -0.707107 0.707107 305.384 61.2642)" fill="#00C1FF"/>
<path d="M383.575 69.7021L380.541 68.8891L381.458 67.9516L384.212 68.6898C384.667 68.8117 385.121 68.862 385.573 68.8407C386.025 68.8194 386.449 68.7294 386.844 68.5706C387.249 68.4094 387.597 68.1822 387.89 67.8893C388.211 67.5682 388.387 67.2846 388.418 67.0384C388.458 66.7897 388.352 66.5729 388.099 66.3881C387.855 66.2007 387.47 66.0365 386.944 65.8955L384.609 65.2697L376.795 73.0832L375.208 72.6579L383.973 63.8934L387.895 64.9444C388.509 65.1089 389.011 65.3019 389.401 65.5235C389.795 65.7411 390.063 65.9909 390.205 66.2732C390.356 66.5529 390.373 66.8627 390.256 67.2026C390.138 67.5426 389.875 67.9172 389.465 68.3266C389.104 68.6877 388.651 68.981 388.106 69.2064C387.565 69.4278 386.977 69.5705 386.343 69.6347C385.714 69.7003 385.075 69.6792 384.426 69.5712L383.575 69.7021ZM379.402 73.7816L375.817 72.821L377.658 72.1161L380.347 72.8365C380.851 72.9717 381.343 73.022 381.822 72.9876C382.307 72.9547 382.759 72.8468 383.178 72.664C383.601 72.4772 383.974 72.2232 384.295 71.9022C384.62 71.5771 384.821 71.2749 384.899 70.9955C384.977 70.7162 384.91 70.4668 384.698 70.2473C384.487 70.0278 384.113 69.8461 383.575 69.7021L381.314 69.0962L382.264 68.1676L385.355 68.996L385.355 69.4234C385.895 69.6138 386.262 69.8649 386.458 70.1768C386.657 70.4847 386.705 70.8231 386.6 71.1919C386.501 71.5622 386.263 71.936 385.885 72.3132C385.34 72.859 384.714 73.2764 384.008 73.5655C383.311 73.852 382.568 74.0143 381.78 74.0523C380.995 74.0863 380.202 73.9961 379.402 73.7816ZM398.428 67.7055L389.615 76.5181L388.094 76.1105L395.516 68.6884L391.63 68.6852L392.635 67.6799L398.189 67.6416L398.428 67.7055Z" fill="white"/>
<rect width="61.0211" height="6.53797" rx="3.26899" transform="matrix(0.965926 0.258819 -0.707107 0.707107 452.748 100.749)" fill="#C2F5FF"/>
<path d="M487.753 97.6163L484.719 96.8033L485.635 95.8659L488.39 96.604C488.845 96.7259 489.299 96.7762 489.751 96.7549C490.203 96.7336 490.627 96.6436 491.022 96.4849C491.426 96.3236 491.775 96.0965 492.068 95.8035C492.389 95.4825 492.565 95.1989 492.596 94.9527C492.636 94.7039 492.53 94.4872 492.276 94.3023C492.033 94.1149 491.648 93.9507 491.122 93.8097L488.786 93.184L480.973 100.997L479.386 100.572L488.151 91.8076L492.073 92.8586C492.687 93.0231 493.189 93.2162 493.579 93.4377C493.973 93.6553 494.241 93.9052 494.383 94.1874C494.534 94.4671 494.551 94.7769 494.433 95.1169C494.316 95.4568 494.052 95.8315 493.643 96.2408C493.282 96.602 492.829 96.8953 492.284 97.1206C491.743 97.342 491.155 97.4848 490.521 97.5489C489.892 97.6145 489.253 97.5934 488.603 97.4855L487.753 97.6163ZM483.58 101.696L479.994 100.735L481.836 100.03L484.525 100.751C485.029 100.886 485.521 100.936 486 100.902C486.485 100.869 486.937 100.761 487.356 100.578C487.779 100.391 488.151 100.137 488.472 99.8164C488.797 99.4914 488.999 99.1892 489.077 98.9098C489.154 98.6304 489.088 98.381 488.876 98.1615C488.665 97.942 488.29 97.7603 487.753 97.6163L485.492 97.0104L486.441 96.0818L489.533 96.9103L489.533 97.3377C490.073 97.528 490.44 97.7792 490.636 98.091C490.835 98.3989 490.882 98.7373 490.778 99.1061C490.679 99.4764 490.44 99.8502 490.063 100.227C489.517 100.773 488.891 101.191 488.185 101.48C487.489 101.766 486.746 101.929 485.957 101.967C485.173 102.001 484.38 101.91 483.58 101.696ZM498.243 104.465L497.328 105.38L489.492 103.28L490.293 102.479L497.411 100.334C498.287 100.07 498.993 99.8368 499.529 99.6344C500.074 99.4295 500.508 99.2326 500.828 99.0438C501.159 98.8525 501.438 98.6425 501.667 98.4137C501.956 98.1248 502.135 97.8419 502.203 97.5651C502.281 97.2857 502.234 97.0339 502.062 96.8097C501.89 96.5856 501.582 96.414 501.138 96.295C500.606 96.1525 500.085 96.1098 499.577 96.1668C499.077 96.2213 498.606 96.3594 498.161 96.5813C497.717 96.8032 497.32 97.0887 496.971 97.4378L495.45 97.0302C495.943 96.5366 496.543 96.1248 497.248 95.7948C497.954 95.4648 498.717 95.2572 499.539 95.1721C500.365 95.083 501.203 95.1523 502.052 95.38C502.809 95.5827 503.358 95.8544 503.698 96.195C504.043 96.5315 504.181 96.9146 504.113 97.3441C504.054 97.7711 503.79 98.2194 503.321 98.6889C503.064 98.9457 502.743 99.1904 502.357 99.423C501.981 99.653 501.559 99.8705 501.09 100.076C500.626 100.282 500.131 100.475 499.604 100.654C499.082 100.835 498.546 101.007 497.994 101.169L492.241 102.856L498.243 104.465Z" fill="white" fill-opacity="0.36"/>
<path d="M-230.189 -59.7861L961.281 259.467L911.969 308.78L-279.501 -10.4737L-230.189 -59.7861Z" fill="black" fill-opacity="0.1"/>
<path d="M-277.962 -12.0137L913.508 307.24L911.967 308.781L-279.503 -10.4727L-277.962 -12.0137Z" fill="black" fill-opacity="0.1"/>
<path d="M34.3015 34.7659L25.4888 43.5786L23.9676 43.171L31.3898 35.7488L27.5039 35.7457L28.5092 34.7404L34.0631 34.702L34.3015 34.7659ZM43.2777 37.2169L43.4093 37.2521L42.4642 38.1972L42.3326 38.162C41.5268 37.946 40.7562 37.8617 40.0209 37.9089C39.2895 37.9521 38.6044 38.0916 37.9654 38.3274C37.3304 38.5593 36.743 38.8548 36.2032 39.2139C35.6688 39.5744 35.197 39.9594 34.7877 40.3687L33.4995 41.6569C33.1102 42.0462 32.8281 42.4082 32.6532 42.7429C32.4823 43.0737 32.4042 43.3708 32.4188 43.6342C32.4334 43.8976 32.5256 44.1182 32.6954 44.296C32.8706 44.4753 33.109 44.6053 33.4105 44.6861C33.7613 44.7801 34.122 44.8156 34.4924 44.7928C34.8668 44.7659 35.2355 44.6891 35.5984 44.5625C35.9709 44.4333 36.3289 44.2596 36.6723 44.0412C37.0158 43.8229 37.334 43.5672 37.627 43.2742C37.8878 43.0134 38.0948 42.7508 38.2479 42.4865C38.4049 42.2182 38.4873 41.9656 38.495 41.7285C38.5068 41.4874 38.4298 41.2759 38.264 41.0941C38.1078 40.9098 37.8433 40.7677 37.4705 40.6678C37.0484 40.5547 36.5774 40.5252 36.0576 40.5792C35.5473 40.6308 35.0519 40.7474 34.5714 40.929C34.1004 41.1081 33.706 41.3357 33.3882 41.6118L32.5883 41.3899C33.1145 40.961 33.6403 40.6159 34.1657 40.3547C34.7005 40.0909 35.2245 39.9006 35.7376 39.7837C36.2602 39.6642 36.7623 39.6105 37.2438 39.6225C37.7348 39.6319 38.1996 39.6954 38.6382 39.8129C39.2357 39.973 39.6687 40.1933 39.9373 40.4739C40.2058 40.7545 40.3414 41.0707 40.3441 41.4225C40.3508 41.7703 40.2474 42.1344 40.0338 42.5148C39.8297 42.8926 39.5471 43.2621 39.1859 43.6233C38.7726 44.0366 38.3058 44.4026 37.7857 44.7212C37.2655 45.0397 36.71 45.2929 36.1192 45.4806C35.5339 45.6697 34.9347 45.7789 34.3217 45.808C33.7087 45.8371 33.098 45.7701 32.4895 45.6071C31.8426 45.4337 31.3743 45.1861 31.0845 44.8642C30.7987 44.5383 30.6594 44.1703 30.6665 43.76C30.6736 43.3498 30.7963 42.9247 31.0346 42.4848C31.273 42.0449 31.5968 41.6203 32.0061 41.211L32.5298 40.6873C33.1478 40.0693 33.8388 39.486 34.6026 38.9376C35.3665 38.3893 36.1976 37.9301 37.0957 37.5602C37.9994 37.1917 38.9665 36.9649 39.997 36.8797C41.0274 36.7946 42.121 36.907 43.2777 37.2169ZM38.9147 46.4281C39.1033 46.2395 39.3413 46.1022 39.6287 46.0164C39.9256 45.9281 40.2276 45.925 40.5346 46.0073C40.8415 46.0895 41.0083 46.2182 41.0349 46.3932C41.0709 46.5657 40.9946 46.7462 40.806 46.9348C40.6214 47.1194 40.3827 47.2539 40.0898 47.3383C39.8024 47.4241 39.5052 47.4259 39.1982 47.3436C38.8912 47.2613 38.7197 47.134 38.6837 46.9615C38.6531 46.7905 38.7301 46.6127 38.9147 46.4281ZM55.6975 40.499L46.8849 49.3116L45.3636 48.904L52.7858 41.4819L48.9 41.4787L49.9052 40.4734L55.4591 40.4351L55.6975 40.499ZM63.0159 42.4599L54.2032 51.2726L52.682 50.865L60.1042 43.4428L56.2183 43.4397L57.2236 42.4344L62.7774 42.396L63.0159 42.4599ZM57.9919 51.5398C58.1805 51.3512 58.4185 51.2139 58.7059 51.1281C59.0028 51.0398 59.3047 51.0367 59.6117 51.119C59.9187 51.2012 60.0855 51.3299 60.112 51.5049C60.148 51.6774 60.0718 51.8579 59.8831 52.0465C59.6985 52.2311 59.4598 52.3656 59.1669 52.45C58.8795 52.5358 58.5823 52.5376 58.2753 52.4553C57.9684 52.3731 57.7968 52.2457 57.7608 52.0732C57.7302 51.9022 57.8073 51.7244 57.9919 51.5398ZM70.4128 54.4558L69.4978 55.3708L61.6614 53.271L62.462 52.4704L69.5807 50.325C70.4564 50.061 71.1623 49.8278 71.6983 49.6254C72.2438 49.4205 72.677 49.2236 72.9979 49.0348C73.3282 48.8435 73.6078 48.6334 73.8365 48.4047C74.1255 48.1157 74.3041 47.8329 74.3724 47.556C74.4502 47.2767 74.4031 47.0249 74.2311 46.8007C74.059 46.5765 73.751 46.4049 73.307 46.286C72.7752 46.1435 72.255 46.1008 71.7461 46.1578C71.2468 46.2122 70.775 46.3504 70.3307 46.5723C69.8864 46.7942 69.4897 47.0797 69.1405 47.4288L67.6193 47.0212C68.1129 46.5276 68.7124 46.1158 69.4178 45.7858C70.1231 45.4557 70.8867 45.2482 71.7086 45.1631C72.5345 45.074 73.3723 45.1433 74.222 45.371C74.9785 45.5737 75.527 45.8453 75.8676 46.1859C76.2122 46.5225 76.3505 46.9056 76.2824 47.3351C76.2238 47.7621 75.9597 48.2103 75.4902 48.6799C75.2334 48.9367 74.9122 49.1814 74.5267 49.4139C74.1508 49.6439 73.7282 49.8615 73.2591 50.0665C72.7954 50.273 72.3001 50.4659 71.7732 50.6453C71.2517 50.8262 70.7151 50.9978 70.1633 51.1604L64.4101 52.8474L70.4128 54.4558ZM79.8856 56.994L78.9706 57.909L71.1342 55.8092L71.9348 55.0086L79.0535 52.8632C79.9292 52.5992 80.6351 52.366 81.1711 52.1636C81.7166 51.9587 82.1498 51.7618 82.4707 51.573C82.801 51.3817 83.0806 51.1717 83.3093 50.9429C83.5983 50.654 83.7769 50.3711 83.8452 50.0943C83.923 49.8149 83.8759 49.5631 83.7039 49.3389C83.5318 49.1148 83.2238 48.9432 82.7798 48.8242C82.248 48.6817 81.7277 48.639 81.2189 48.696C80.7196 48.7505 80.2478 48.8886 79.8035 49.1105C79.3592 49.3324 78.9625 49.6179 78.6133 49.967L77.0921 49.5594C77.5857 49.0658 78.1852 48.654 78.8905 48.324C79.5959 47.994 80.3595 47.7864 81.1814 47.7013C82.0073 47.6122 82.8451 47.6815 83.6948 47.9092C84.4513 48.1119 84.9998 48.3836 85.3404 48.7242C85.685 49.0607 85.8233 49.4438 85.7552 49.8733C85.6966 50.3003 85.4325 50.7486 84.963 51.2181C84.7062 51.4749 84.385 51.7196 83.9995 51.9522C83.6236 52.1822 83.201 52.3997 82.7318 52.6047C82.2682 52.8112 81.7729 53.0042 81.2459 53.1835C80.7245 53.3644 80.1879 53.5361 79.6361 53.6986L73.8829 55.3856L79.8856 56.994Z" fill="white" fill-opacity="0.36"/>
<rect width="61.0211" height="6.53797" rx="3.26899" transform="matrix(0.965926 0.258819 -0.707107 0.707107 129.756 76.7095)" fill="#00C1FF"/>
<path d="M168.572 69.6661L156.621 76.5921L155.001 76.158L168.329 68.6164L169.373 68.8962L168.572 69.6661ZM163.906 78.5442L167.922 69.492L168.674 68.7089L169.719 68.9887L165.534 78.9805L163.906 78.5442ZM166.945 75.2446L165.994 76.1957L159.268 74.3934L160.219 73.4423L166.945 75.2446ZM175.503 80.4914L174.588 81.4064L166.751 79.3066L167.552 78.506L174.671 76.3606C175.546 76.0966 176.252 75.8634 176.788 75.661C177.334 75.456 177.767 75.2592 178.088 75.0704C178.418 74.879 178.698 74.669 178.926 74.4403C179.215 74.1513 179.394 73.8684 179.462 73.5916C179.54 73.3122 179.493 73.0605 179.321 72.8363C179.149 72.6121 178.841 72.4405 178.397 72.3215C177.865 72.1791 177.345 72.1363 176.836 72.1933C176.337 72.2478 175.865 72.386 175.421 72.6079C174.976 72.8297 174.58 73.1152 174.23 73.4644L172.709 73.0568C173.203 72.5632 173.802 72.1513 174.508 71.8213C175.213 71.4913 175.977 71.2838 176.798 71.1987C177.624 71.1096 178.462 71.1789 179.312 71.4066C180.068 71.6093 180.617 71.8809 180.957 72.2215C181.302 72.5581 181.44 72.9411 181.372 73.3707C181.314 73.7977 181.05 74.2459 180.58 74.7154C180.323 74.9723 180.002 75.217 179.617 75.4495C179.241 75.6795 178.818 75.897 178.349 76.1021C177.885 76.3086 177.39 76.5015 176.863 76.6809C176.342 76.8617 175.805 77.0334 175.253 77.196L169.5 78.883L175.503 80.4914Z" fill="white" fill-opacity="0.36"/>
<rect width="148.194" height="6.53797" rx="3.26899" transform="matrix(0.965926 0.258819 -0.707107 0.707107 192.922 93.6255)" fill="#C2F5FF"/>
<rect width="93.7109" height="6.53797" rx="3.26899" transform="matrix(0.965926 0.258819 -0.707107 0.707107 192.922 93.6255)" fill="#00C1FF"/>
<path d="M271.101 102.069L268.067 101.256L268.984 100.319L271.739 101.057C272.194 101.179 272.647 101.229 273.099 101.208C273.552 101.187 273.975 101.097 274.37 100.938C274.775 100.777 275.124 100.549 275.417 100.256C275.738 99.9354 275.914 99.6518 275.944 99.4056C275.984 99.1569 275.878 98.9401 275.625 98.7553C275.381 98.5679 274.996 98.4037 274.47 98.2627L272.135 97.6369L264.321 105.45L262.734 105.025L271.499 96.2606L275.421 97.3116C276.035 97.4761 276.537 97.6691 276.927 97.8907C277.322 98.1082 277.59 98.3581 277.731 98.6404C277.883 98.92 277.899 99.2299 277.782 99.5698C277.664 99.9098 277.401 100.284 276.992 100.694C276.63 101.055 276.177 101.348 275.632 101.574C275.091 101.795 274.503 101.938 273.869 102.002C273.241 102.067 272.601 102.046 271.952 101.938L271.101 102.069ZM266.928 106.149L263.343 105.188L265.184 104.483L267.873 105.204C268.378 105.339 268.869 105.389 269.349 105.355C269.833 105.322 270.285 105.214 270.704 105.031C271.128 104.844 271.5 104.59 271.821 104.269C272.146 103.944 272.347 103.642 272.425 103.363C272.503 103.083 272.436 102.834 272.225 102.614C272.013 102.395 271.639 102.213 271.101 102.069L268.84 101.463L269.79 100.535L272.881 101.363L272.882 101.791C273.421 101.981 273.789 102.232 273.984 102.544C274.184 102.852 274.231 103.19 274.126 103.559C274.027 103.929 273.789 104.303 273.412 104.68C272.866 105.226 272.24 105.644 271.534 105.933C270.837 106.219 270.094 106.382 269.306 106.42C268.521 106.453 267.729 106.363 266.928 106.149ZM285.954 100.073L277.141 108.885L275.62 108.478L283.042 101.056L279.156 101.052L280.161 100.047L285.715 100.009L285.954 100.073Z" fill="white"/>
<rect width="61.0211" height="6.53797" rx="3.26899" transform="matrix(0.965926 0.258819 -0.707107 0.707107 340.271 133.114)" fill="#C2F5FF"/>
<path d="M375.284 129.985L372.249 129.172L373.166 128.235L375.921 128.973C376.376 129.095 376.829 129.145 377.282 129.124C377.734 129.102 378.157 129.012 378.553 128.854C378.957 128.692 379.306 128.465 379.599 128.172C379.92 127.851 380.096 127.568 380.126 127.321C380.167 127.073 380.06 126.856 379.807 126.671C379.564 126.484 379.179 126.319 378.652 126.178L376.317 125.553L368.504 133.366L366.917 132.941L375.681 124.176L379.604 125.227C380.218 125.392 380.72 125.585 381.11 125.806C381.504 126.024 381.772 126.274 381.914 126.556C382.065 126.836 382.082 127.146 381.964 127.486C381.847 127.825 381.583 128.2 381.174 128.609C380.813 128.971 380.359 129.264 379.814 129.489C379.273 129.711 378.686 129.853 378.052 129.918C377.423 129.983 376.784 129.962 376.134 129.854L375.284 129.985ZM371.11 134.065L367.525 133.104L369.367 132.399L372.055 133.119C372.56 133.255 373.052 133.305 373.531 133.271C374.016 133.238 374.468 133.13 374.887 132.947C375.31 132.76 375.682 132.506 376.003 132.185C376.328 131.86 376.529 131.558 376.607 131.278C376.685 130.999 376.618 130.75 376.407 130.53C376.195 130.311 375.821 130.129 375.284 129.985L373.022 129.379L373.972 128.45L377.064 129.279L377.064 129.706C377.603 129.897 377.971 130.148 378.166 130.46C378.366 130.768 378.413 131.106 378.308 131.475C378.209 131.845 377.971 132.219 377.594 132.596C377.048 133.142 376.422 133.559 375.716 133.848C375.019 134.135 374.277 134.297 373.488 134.335C372.703 134.369 371.911 134.279 371.11 134.065ZM385.774 136.833L384.859 137.748L377.023 135.649L377.823 134.848L384.942 132.703C385.818 132.439 386.524 132.205 387.06 132.003C387.605 131.798 388.038 131.601 388.359 131.412C388.689 131.221 388.969 131.011 389.198 130.782C389.487 130.493 389.665 130.211 389.734 129.934C389.811 129.654 389.764 129.403 389.592 129.178C389.42 128.954 389.112 128.783 388.668 128.664C388.136 128.521 387.616 128.478 387.107 128.535C386.608 128.59 386.136 128.728 385.692 128.95C385.248 129.172 384.851 129.457 384.502 129.806L382.981 129.399C383.474 128.905 384.074 128.493 384.779 128.163C385.484 127.833 386.248 127.626 387.07 127.541C387.896 127.452 388.733 127.521 389.583 127.749C390.34 127.951 390.888 128.223 391.229 128.564C391.573 128.9 391.712 129.283 391.644 129.713C391.585 130.14 391.321 130.588 390.851 131.058C390.595 131.314 390.273 131.559 389.888 131.792C389.512 132.022 389.089 132.239 388.62 132.444C388.157 132.651 387.661 132.844 387.134 133.023C386.613 133.204 386.076 133.376 385.525 133.538L379.771 135.225L385.774 136.833Z" fill="white" fill-opacity="0.36"/>
<path d="M-327.279 37.3027L864.191 356.556L862.65 358.097L-328.82 38.8437L-327.279 37.3027Z" fill="black" fill-opacity="0.1"/>
<path d="M-15.3717 88.7247L-16.7081 90.061C-17.4264 90.7794 -18.1201 91.3618 -18.7891 91.8084C-19.4582 92.255 -20.1076 92.5848 -20.7375 92.7976C-21.3674 93.0104 -21.9836 93.1227 -22.586 93.1343C-23.1789 93.1433 -23.7659 93.07 -24.347 92.9143C-24.8075 92.7909 -25.1902 92.6349 -25.4951 92.4463C-25.8001 92.2578 -26.0165 92.0293 -26.1443 91.761C-26.2627 91.4901 -26.281 91.1748 -26.1993 90.8151C-26.1176 90.4554 -25.9196 90.0454 -25.6054 89.5851C-25.2911 89.1249 -24.847 88.6078 -24.2732 88.034L-22.9368 86.6976C-22.2185 85.9793 -21.5288 85.4008 -20.8678 84.9622C-20.2013 84.5251 -19.5571 84.2042 -18.9353 83.9994C-18.3094 83.7905 -17.702 83.6836 -17.1131 83.6786C-16.5187 83.675 -15.9337 83.7503 -15.3581 83.9046C-14.8921 84.0294 -14.5067 84.1861 -14.2018 84.3747C-13.8873 84.5607 -13.6669 84.7851 -13.5405 85.048C-13.4101 85.3068 -13.3865 85.6134 -13.4696 85.9676C-13.5433 86.3193 -13.7353 86.7233 -14.0455 87.1795C-14.3558 87.6358 -14.7979 88.1508 -15.3717 88.7247ZM-18.4181 89.8318L-16.7146 88.1282C-16.3213 87.735 -16.0091 87.381 -15.7779 87.0664C-15.5372 86.7493 -15.3708 86.4682 -15.2787 86.2232C-15.1867 85.9782 -15.1676 85.7645 -15.2215 85.5822C-15.27 85.4012 -15.3848 85.2484 -15.5658 85.1236C-15.7373 84.9962 -15.971 84.8928 -16.2671 84.8135C-16.6289 84.7166 -16.9997 84.6808 -17.3796 84.7062C-17.7555 84.7276 -18.1458 84.819 -18.5503 84.9802C-18.9494 85.143 -19.3708 85.3837 -19.8146 85.7024C-20.2584 86.0211 -20.7271 86.4272 -21.2207 86.9208L-22.9243 88.6244C-23.3176 89.0177 -23.6345 89.3729 -23.8752 89.69C-24.1104 90.0086 -24.2753 90.2952 -24.37 90.5497C-24.4606 90.8001 -24.4857 91.0199 -24.4452 91.2088C-24.4048 91.3977 -24.3008 91.5579 -24.1333 91.6893C-23.9563 91.8181 -23.7225 91.9214 -23.432 91.9993C-23.0592 92.0992 -22.6809 92.1344 -22.297 92.105C-21.913 92.0756 -21.5175 91.9755 -21.1104 91.8047C-20.6938 91.6314 -20.2644 91.3826 -19.822 91.0584C-19.3757 90.7303 -18.9077 90.3214 -18.4181 89.8318ZM-15.8847 93.846L-15.7285 93.8879C-14.8514 94.1229 -14.0484 94.2236 -13.3196 94.1899C-12.5908 94.1562 -11.9259 94.0265 -11.3249 93.8008C-10.7239 93.5752 -10.178 93.2864 -9.68709 92.9345C-9.19219 92.5786 -8.74209 92.198 -8.33677 91.7927L-6.9944 90.4504C-6.59711 90.0531 -6.307 89.683 -6.12408 89.3402C-5.93568 88.9989 -5.84678 88.6945 -5.85738 88.4271C-5.86249 88.1611 -5.94792 87.9373 -6.11367 87.7555C-6.27941 87.5737 -6.51578 87.4416 -6.82277 87.3594C-7.17361 87.2654 -7.54099 87.2331 -7.92491 87.2625C-8.29933 87.2894 -8.67478 87.3694 -9.05125 87.5026C-9.42223 87.6373 -9.78147 87.8158 -10.129 88.0382C-10.4764 88.2605 -10.7967 88.5182 -11.0896 88.8111C-11.3505 89.072 -11.5594 89.3366 -11.7165 89.6049C-11.8736 89.8732 -11.96 90.1299 -11.9757 90.375C-11.9915 90.6201 -11.9232 90.8368 -11.771 91.0252C-11.6093 91.211 -11.3448 91.3531 -10.9775 91.4515C-10.6376 91.5426 -10.2715 91.5796 -9.87913 91.5626C-9.4773 91.5431 -9.07699 91.4799 -8.6782 91.373C-8.26992 91.2636 -7.8889 91.119 -7.53514 90.939C-7.17591 90.7605 -6.86694 90.5558 -6.60824 90.3249L-5.88463 90.5187C-6.21771 90.8518 -6.63723 91.1567 -7.14319 91.4333C-7.63966 91.7073 -8.1793 91.9341 -8.76212 92.1138C-9.34493 92.2935 -9.93039 92.4063 -10.5185 92.4522C-11.1026 92.4942 -11.6468 92.4476 -12.1512 92.3124C-12.7432 92.1538 -13.1715 91.9322 -13.436 91.6476C-13.7006 91.363 -13.8321 91.0428 -13.8308 90.687C-13.824 90.3326 -13.7165 89.9645 -13.5085 89.5827C-13.2909 89.1983 -13.0035 88.8275 -12.6464 88.4703C-12.229 88.053 -11.7583 87.683 -11.2341 87.3604C-10.7099 87.0378 -10.1532 86.7799 -9.56379 86.5868C-8.9704 86.3896 -8.36522 86.2744 -7.74822 86.2413C-7.12575 86.2096 -6.51026 86.2753 -5.90177 86.4384C-5.21653 86.622 -4.73303 86.8788 -4.45127 87.2087C-4.16951 87.5386 -4.04643 87.9125 -4.08202 88.3304C-4.11213 88.7497 -4.2666 89.1892 -4.54544 89.6487C-4.82428 90.1083 -5.18643 90.5608 -5.63188 91.0063L-6.03519 91.4096C-6.48866 91.863 -6.99128 92.3135 -7.54304 92.761C-8.0853 93.206 -8.6815 93.611 -9.33165 93.9762C-9.97631 94.3428 -10.6782 94.6381 -11.4374 94.8621C-12.1926 95.0821 -13.0084 95.1993 -13.8848 95.2138C-14.7517 95.2258 -15.6813 95.0988 -16.6735 94.833L-16.8298 94.7911L-15.8847 93.846ZM-7.91446 96.4167C-7.72584 96.2281 -7.48784 96.0909 -7.20045 96.0051C-6.90356 95.9167 -6.60162 95.9136 -6.29463 95.9959C-5.98764 96.0782 -5.82087 96.2068 -5.79433 96.3818C-5.75829 96.5543 -5.83458 96.7349 -6.02319 96.9235C-6.20779 97.1081 -6.44653 97.2426 -6.7394 97.3269C-7.0268 97.4127 -7.32399 97.4145 -7.63098 97.3322C-7.93797 97.25 -8.10948 97.1226 -8.14552 96.9501C-8.17608 96.7791 -8.09906 96.6013 -7.91446 96.4167ZM8.86834 90.4876L0.0556696 99.3003L-1.46557 98.8927L5.95658 91.4705L2.07077 91.4673L3.07604 90.4621L8.62988 90.4237L8.86834 90.4876ZM16.1867 92.4486L7.37406 101.261L5.85282 100.854L13.275 93.4315L9.38916 93.4283L10.3944 92.423L15.9483 92.3847L16.1867 92.4486ZM11.1627 101.528C11.3513 101.34 11.5893 101.203 11.8767 101.117C12.1736 101.028 12.4755 101.025 12.7825 101.108C13.0895 101.19 13.2563 101.319 13.2828 101.494C13.3189 101.666 13.2426 101.847 13.054 102.035C12.8694 102.22 12.6306 102.354 12.3377 102.439C12.0503 102.524 11.7532 102.526 11.4462 102.444C11.1392 102.362 10.9677 102.234 10.9316 102.062C10.9011 101.891 10.9781 101.713 11.1627 101.528ZM23.5836 104.444L22.6687 105.359L14.8322 103.26L15.6328 102.459L22.7516 100.314C23.6273 100.05 24.3331 99.8164 24.8691 99.614C25.4146 99.4091 25.8478 99.2122 26.1687 99.0235C26.4991 98.8321 26.7786 98.6221 27.0074 98.3933C27.2963 98.1044 27.4749 97.8215 27.5432 97.5447C27.621 97.2653 27.5739 97.0135 27.4019 96.7894C27.2299 96.5652 26.9218 96.3936 26.4778 96.2746C25.9461 96.1321 25.4258 96.0894 24.917 96.1464C24.4176 96.2009 23.9458 96.3391 23.5015 96.5609C23.0572 96.7828 22.6605 97.0683 22.3114 97.4174L20.7901 97.0098C21.2837 96.5162 21.8832 96.1044 22.5886 95.7744C23.2939 95.4444 24.0575 95.2368 24.8794 95.1518C25.7053 95.0627 26.5431 95.132 27.3928 95.3596C28.1493 95.5623 28.6978 95.834 29.0384 96.1746C29.383 96.5112 29.5213 96.8942 29.4532 97.3237C29.3946 97.7507 29.1305 98.199 28.661 98.6685C28.4042 98.9253 28.083 99.17 27.6976 99.4026C27.3216 99.6326 26.899 99.8501 26.4299 100.055C25.9662 100.262 25.4709 100.455 24.944 100.634C24.4225 100.815 23.8859 100.986 23.3341 101.149L17.5809 102.836L23.5836 104.444ZM31.447 101.461L32.5325 101.751C33.0642 101.894 33.567 101.947 34.0407 101.911C34.524 101.873 34.963 101.764 35.3577 101.585C35.7618 101.403 36.1064 101.17 36.3913 100.885C36.7284 100.548 36.9346 100.244 37.0098 99.9744C37.0851 99.7045 37.0274 99.4703 36.8368 99.2716C36.6462 99.073 36.3151 98.9105 35.8437 98.7842C35.4161 98.6696 34.9757 98.6305 34.5223 98.6667C34.0785 98.7005 33.651 98.8047 33.2399 98.9795C32.8343 99.1558 32.479 99.3964 32.174 99.7014L30.6527 99.2938C31.0982 98.8483 31.657 98.4841 32.3292 98.2012C33.0014 97.9183 33.7226 97.7426 34.493 97.6743C35.2689 97.6074 36.0241 97.6724 36.7587 97.8692C37.4823 98.0631 38.0211 98.3271 38.3752 98.6611C38.7334 98.9911 38.8786 99.3811 38.8109 99.8311C38.7472 100.277 38.4425 100.773 37.8967 101.319C37.676 101.539 37.3679 101.757 36.9726 101.972C36.5867 102.184 36.1374 102.359 35.6247 102.496C35.1174 102.635 34.5606 102.712 33.9542 102.728C33.3518 102.739 32.7244 102.658 32.0721 102.483L30.7728 102.135L31.447 101.461ZM30.532 102.376L31.2002 101.707L32.4994 102.055C33.2614 102.26 33.8256 102.495 34.1921 102.761C34.5585 103.027 34.7739 103.309 34.8382 103.606C34.908 103.904 34.8681 104.201 34.7183 104.497C34.5781 104.79 34.3775 105.067 34.1167 105.328C33.7074 105.737 33.2483 106.075 32.7394 106.341C32.2359 106.608 31.7012 106.805 31.1351 106.933C30.5745 107.063 30.0078 107.122 29.4349 107.111C28.8621 107.1 28.3043 107.022 27.7616 106.877C27.2408 106.737 26.8044 106.552 26.4522 106.32C26.1056 106.09 25.8592 105.825 25.713 105.526C25.5708 105.224 25.5516 104.895 25.6552 104.542C25.7628 104.184 26.0113 103.81 26.4005 103.421L27.9218 103.828C27.6168 104.133 27.4404 104.425 27.3925 104.702C27.3502 104.98 27.4347 105.23 27.6462 105.449C27.8671 105.666 28.2106 105.837 28.6766 105.962C29.1425 106.087 29.6009 106.136 30.0517 106.109C30.512 106.08 30.9529 105.969 31.3746 105.776C31.8018 105.586 32.198 105.308 32.5632 104.942C32.9283 104.577 33.1232 104.25 33.1476 103.962C33.1761 103.669 33.0546 103.415 32.7832 103.2C32.5214 102.982 32.1328 102.804 31.6175 102.666L30.532 102.376Z" fill="white" fill-opacity="0.36"/>
<rect width="61.0211" height="6.53797" rx="3.26899" transform="matrix(0.965926 0.258819 -0.707107 0.707107 80.4636 126.034)" fill="#00C1FF"/>
<path d="M119.275 118.992L107.324 125.918L105.704 125.484L119.032 117.942L120.077 118.222L119.275 118.992ZM114.609 127.87L118.626 118.818L119.378 118.035L120.422 118.314L116.238 128.306L114.609 127.87ZM117.648 124.57L116.697 125.521L109.971 123.719L110.922 122.768L117.648 124.57ZM126.206 129.817L125.291 130.732L117.455 128.632L118.255 127.832L125.374 125.686C126.25 125.422 126.955 125.189 127.491 124.987C128.037 124.782 128.47 124.585 128.791 124.396C129.121 124.205 129.401 123.995 129.63 123.766C129.919 123.477 130.097 123.194 130.166 122.917C130.243 122.638 130.196 122.386 130.024 122.162C129.852 121.938 129.544 121.766 129.1 121.647C128.568 121.505 128.048 121.462 127.539 121.519C127.04 121.574 126.568 121.712 126.124 121.934C125.68 122.155 125.283 122.441 124.934 122.79L123.412 122.382C123.906 121.889 124.506 121.477 125.211 121.147C125.916 120.817 126.68 120.609 127.502 120.524C128.328 120.435 129.165 120.505 130.015 120.732C130.772 120.935 131.32 121.207 131.661 121.547C132.005 121.884 132.144 122.267 132.076 122.696C132.017 123.123 131.753 123.572 131.283 124.041C131.027 124.298 130.705 124.543 130.32 124.775C129.944 125.005 129.521 125.223 129.052 125.428C128.589 125.634 128.093 125.827 127.566 126.007C127.045 126.187 126.508 126.359 125.957 126.522L120.203 128.209L126.206 129.817Z" fill="white" fill-opacity="0.36"/>
<rect width="148.194" height="6.53797" rx="3.26899" transform="matrix(0.965926 0.258819 -0.707107 0.707107 143.627 142.959)" fill="#C2F5FF"/>
<rect width="76.2763" height="6.53797" rx="3.26899" transform="matrix(0.965926 0.258819 -0.707107 0.707107 143.627 142.959)" fill="#00C1FF"/>
<path d="M221.807 151.396L218.773 150.583L219.689 149.645L222.444 150.383C222.899 150.505 223.353 150.556 223.805 150.534C224.257 150.513 224.681 150.423 225.076 150.264C225.481 150.103 225.829 149.876 226.122 149.583C226.443 149.262 226.619 148.978 226.65 148.732C226.69 148.483 226.584 148.267 226.331 148.082C226.087 147.894 225.702 147.73 225.176 147.589L222.841 146.963L215.027 154.777L213.44 154.352L222.205 145.587L226.127 146.638C226.741 146.803 227.243 146.996 227.633 147.217C228.027 147.435 228.295 147.685 228.437 147.967C228.588 148.246 228.605 148.556 228.488 148.896C228.37 149.236 228.107 149.611 227.697 150.02C227.336 150.381 226.883 150.675 226.338 150.9C225.797 151.121 225.209 151.264 224.575 151.328C223.946 151.394 223.307 151.373 222.657 151.265L221.807 151.396ZM217.634 155.475L214.049 154.515L215.89 153.81L218.579 154.53C219.083 154.665 219.575 154.716 220.054 154.681C220.539 154.648 220.991 154.54 221.41 154.358C221.833 154.171 222.205 153.917 222.526 153.596C222.851 153.271 223.053 152.969 223.131 152.689C223.208 152.41 223.142 152.16 222.93 151.941C222.719 151.721 222.344 151.54 221.807 151.396L219.546 150.79L220.495 149.861L223.587 150.69L223.587 151.117C224.127 151.307 224.494 151.559 224.69 151.87C224.889 152.178 224.937 152.517 224.832 152.885C224.733 153.256 224.494 153.63 224.117 154.007C223.571 154.553 222.946 154.97 222.239 155.259C221.543 155.546 220.8 155.708 220.011 155.746C219.227 155.78 218.434 155.69 217.634 155.475ZM236.659 149.399L227.847 158.212L226.325 157.804L233.748 150.382L229.862 150.379L230.867 149.374L236.421 149.335L236.659 149.399Z" fill="white"/>
<rect width="61.0211" height="6.53797" rx="3.26899" transform="matrix(0.965926 0.258819 -0.707107 0.707107 290.983 182.451)" fill="#C2F5FF"/>
<path d="M325.995 179.313L322.961 178.5L323.877 177.562L326.632 178.3C327.087 178.422 327.54 178.473 327.993 178.451C328.445 178.43 328.869 178.34 329.264 178.181C329.668 178.02 330.017 177.793 330.31 177.5C330.631 177.179 330.807 176.895 330.838 176.649C330.878 176.4 330.771 176.183 330.518 175.999C330.275 175.811 329.89 175.647 329.363 175.506L327.028 174.88L319.215 182.694L317.628 182.268L326.392 173.504L330.315 174.555C330.929 174.719 331.431 174.912 331.821 175.134C332.215 175.352 332.483 175.601 332.625 175.884C332.776 176.163 332.793 176.473 332.675 176.813C332.558 177.153 332.294 177.528 331.885 177.937C331.524 178.298 331.071 178.592 330.525 178.817C329.984 179.038 329.397 179.181 328.763 179.245C328.134 179.311 327.495 179.29 326.845 179.182L325.995 179.313ZM321.821 183.392L318.236 182.431L320.078 181.727L322.767 182.447C323.271 182.582 323.763 182.633 324.242 182.598C324.727 182.565 325.179 182.457 325.598 182.275C326.021 182.088 326.393 181.834 326.714 181.513C327.039 181.188 327.241 180.885 327.318 180.606C327.396 180.327 327.329 180.077 327.118 179.858C326.906 179.638 326.532 179.457 325.995 179.313L323.733 178.707L324.683 177.778L327.775 178.607L327.775 179.034C328.314 179.224 328.682 179.475 328.877 179.787C329.077 180.095 329.124 180.434 329.02 180.802C328.92 181.173 328.682 181.546 328.305 181.924C327.759 182.469 327.133 182.887 326.427 183.176C325.73 183.463 324.988 183.625 324.199 183.663C323.414 183.697 322.622 183.607 321.821 183.392ZM336.485 186.161L335.57 187.076L327.734 184.976L328.534 184.176L335.653 182.03C336.529 181.766 337.235 181.533 337.771 181.331C338.316 181.126 338.749 180.929 339.07 180.74C339.401 180.549 339.68 180.339 339.909 180.11C340.198 179.821 340.376 179.538 340.445 179.261C340.522 178.982 340.475 178.73 340.303 178.506C340.131 178.282 339.823 178.11 339.379 177.991C338.848 177.849 338.327 177.806 337.818 177.863C337.319 177.918 336.847 178.056 336.403 178.278C335.959 178.499 335.562 178.785 335.213 179.134L333.692 178.727C334.185 178.233 334.785 177.821 335.49 177.491C336.195 177.161 336.959 176.954 337.781 176.868C338.607 176.779 339.445 176.849 340.294 177.076C341.051 177.279 341.599 177.551 341.94 177.891C342.284 178.228 342.423 178.611 342.355 179.04C342.296 179.467 342.032 179.916 341.562 180.385C341.306 180.642 340.984 180.887 340.599 181.119C340.223 181.349 339.8 181.567 339.331 181.772C338.868 181.978 338.372 182.171 337.845 182.351C337.324 182.531 336.787 182.703 336.236 182.866L330.482 184.553L336.485 186.161Z" fill="white" fill-opacity="0.36"/>
<rect x="-0.466746" y="-1.74192" width="350.755" height="354.612" rx="9.51777" transform="matrix(0.965926 0.258819 -0.707107 0.707107 314.95 98.6106)" fill="#303030" stroke="white" stroke-width="3.60673"/>
<path d="M329.756 261.399L330.12 261.497C331.793 261.945 333.348 262.159 334.783 262.138C336.24 262.112 337.59 261.9 338.834 261.501C340.078 261.103 341.236 260.552 342.309 259.849C343.381 259.146 344.375 258.337 345.289 257.422L348.632 254.079C349.422 253.289 349.999 252.566 350.364 251.909C350.749 251.247 350.935 250.661 350.923 250.151C350.931 249.635 350.77 249.204 350.441 248.857C350.123 248.513 349.662 248.259 349.055 248.097C348.388 247.918 347.677 247.868 346.921 247.947C346.187 248.021 345.447 248.199 344.701 248.484C343.976 248.762 343.264 249.129 342.564 249.583C341.885 250.031 341.261 250.54 340.693 251.108C340.16 251.641 339.73 252.178 339.403 252.721C339.096 253.258 338.928 253.765 338.898 254.241C338.868 254.717 339.009 255.137 339.32 255.502C339.632 255.867 340.146 256.145 340.861 256.337C341.54 256.519 342.258 256.593 343.015 256.559C343.78 256.517 344.539 256.388 345.292 256.173C346.045 255.959 346.747 255.68 347.398 255.336C348.049 254.993 348.6 254.611 349.05 254.192L350.351 255.013C349.676 255.688 348.816 256.302 347.771 256.855C346.747 257.402 345.625 257.855 344.404 258.215C343.204 258.569 341.996 258.786 340.779 258.865C339.574 258.947 338.45 258.849 337.407 258.569C336.145 258.231 335.203 257.759 334.579 257.153C333.976 256.541 333.655 255.847 333.616 255.071C333.589 254.298 333.808 253.479 334.274 252.613C334.74 251.747 335.404 250.884 336.265 250.023C337.197 249.09 338.266 248.268 339.471 247.555C340.676 246.842 341.959 246.274 343.32 245.851C344.69 245.419 346.076 245.171 347.477 245.108C348.9 245.038 350.284 245.184 351.63 245.545C353.061 245.928 354.113 246.469 354.784 247.167C355.455 247.864 355.8 248.672 355.821 249.589C355.842 250.506 355.565 251.49 354.991 252.541C354.417 253.592 353.584 254.663 352.492 255.755L351.36 256.887C350.215 258.033 348.97 259.101 347.625 260.091C346.29 261.073 344.854 261.932 343.318 262.669C341.803 263.4 340.194 263.971 338.491 264.381C336.81 264.786 335.045 264.983 333.195 264.972C331.367 264.955 329.47 264.683 327.506 264.157L327.105 264.049L329.756 261.399ZM358.389 260.848L355.522 259.286L366.707 249.922L380.988 253.749L378.271 256.466L367.629 253.614L362.147 258.174C362.737 258.106 363.48 258.086 364.376 258.112C365.282 258.13 366.201 258.264 367.135 258.514C368.384 258.849 369.349 259.298 370.03 259.864C370.731 260.423 371.143 261.08 371.267 261.833C371.398 262.578 371.242 263.403 370.798 264.308C370.363 265.205 369.644 266.154 368.641 267.158C367.744 268.054 366.723 268.845 365.578 269.528C364.445 270.216 363.223 270.761 361.913 271.164C360.602 271.567 359.233 271.791 357.804 271.836C356.396 271.875 354.952 271.696 353.472 271.3C352.369 271.004 351.423 270.605 350.635 270.101C349.868 269.591 349.315 268.998 348.976 268.322C348.647 267.637 348.581 266.888 348.779 266.074C348.987 265.252 349.502 264.382 350.326 263.466L354.62 264.617C354.099 265.276 353.798 265.877 353.718 266.418C353.659 266.954 353.823 267.42 354.211 267.817C354.598 268.213 355.199 268.52 356.011 268.738C356.751 268.936 357.481 269.014 358.201 268.97C358.93 268.918 359.648 268.761 360.355 268.5C361.083 268.234 361.776 267.879 362.434 267.436C363.104 266.997 363.736 266.48 364.331 265.885C364.9 265.317 365.316 264.77 365.58 264.244C365.857 263.721 365.968 263.233 365.914 262.78C365.872 262.329 365.647 261.931 365.24 261.586C364.841 261.231 364.253 260.95 363.477 260.742C362.434 260.463 361.522 260.359 360.742 260.431C359.975 260.507 359.19 260.646 358.389 260.848ZM379.934 259.495L380.96 258.469C381.697 257.733 382.585 257.121 383.625 256.634C384.666 256.147 385.786 255.834 386.987 255.694C388.188 255.554 389.377 255.642 390.553 255.957C391.766 256.282 392.603 256.737 393.063 257.322C393.536 257.911 393.689 258.565 393.522 259.286C393.355 260.006 392.903 260.735 392.166 261.472L391.141 262.498C390.421 263.217 389.542 263.82 388.501 264.306C387.473 264.796 386.359 265.111 385.158 265.251C383.969 265.394 382.774 265.305 381.574 264.983C380.385 264.665 379.548 264.21 379.063 263.618C378.59 263.03 378.438 262.375 378.605 261.655C378.772 260.934 379.215 260.214 379.934 259.495ZM383.998 259.283L382.972 260.309C382.617 260.664 382.371 261.026 382.233 261.394C382.107 261.766 382.141 262.101 382.334 262.401C382.527 262.7 382.908 262.926 383.478 263.079C384.06 263.235 384.631 263.264 385.19 263.166C385.761 263.071 386.298 262.889 386.799 262.618C387.301 262.347 387.729 262.034 388.084 261.679L389.11 260.653C389.474 260.289 389.719 259.921 389.844 259.55C389.991 259.173 389.974 258.836 389.793 258.54C389.612 258.244 389.231 258.018 388.649 257.862C388.091 257.712 387.52 257.683 386.937 257.775C386.366 257.869 385.819 258.055 385.296 258.331C384.795 258.602 384.362 258.919 383.998 259.283ZM381.785 273.837L382.823 272.799C383.551 272.071 384.436 271.463 385.476 270.976C386.528 270.493 387.655 270.181 388.856 270.041C390.057 269.902 391.245 269.989 392.422 270.305C393.635 270.63 394.471 271.085 394.932 271.67C395.405 272.258 395.552 272.911 395.373 273.628C395.205 274.349 394.758 275.073 394.03 275.801L392.991 276.84C392.263 277.568 391.379 278.175 390.338 278.662C389.31 279.152 388.202 279.469 387.013 279.612C385.824 279.755 384.636 279.667 383.447 279.349C382.246 279.027 381.404 278.57 380.919 277.979C380.446 277.391 380.287 276.734 380.442 276.01C380.609 275.29 381.057 274.565 381.785 273.837ZM385.88 273.617L384.841 274.656C384.486 275.011 384.245 275.375 384.12 275.746C384.006 276.121 384.042 276.463 384.226 276.771C384.418 277.07 384.788 277.293 385.333 277.439C385.952 277.605 386.547 277.641 387.118 277.546C387.698 277.443 388.223 277.257 388.691 276.988C389.18 276.714 389.607 276.395 389.971 276.031L391.01 274.992C391.374 274.628 391.619 274.26 391.744 273.889C391.882 273.52 391.854 273.186 391.662 272.887C391.481 272.591 391.1 272.365 390.517 272.209C389.947 272.056 389.377 272.027 388.805 272.122C388.234 272.216 387.692 272.398 387.178 272.665C386.676 272.936 386.244 273.253 385.88 273.617ZM401.384 262.726L373.294 274.416L372.002 272.871L400.092 261.181L401.384 262.726Z" fill="white"/>
<circle cx="81.0012" cy="81.0012" r="86.787" transform="matrix(0.965926 0.258819 -0.707107 0.707107 344.286 184.351)" stroke="black" stroke-opacity="0.1" stroke-width="11.5716"/>
<path d="M426.618 201.227C472.916 213.633 482.973 251.165 449.08 285.057C415.188 318.949 350.181 336.368 303.883 323.963C257.585 311.557 247.528 274.025 281.421 240.133C299.552 222.001 326.588 208.585 354.901 201.927" stroke="#00C1FF" stroke-width="11.5716" stroke-linecap="round"/>
<path d="M339.496 129.77L336.99 132.131L335.889 131.835L337.525 130.199L336.614 129.955L337.369 129.2L339.496 129.77ZM330.737 128.381L337.524 121.594L338.759 121.925L332.704 127.98L337.269 129.203L343.324 123.148L344.553 123.477L337.767 130.264L330.737 128.381ZM342.824 131.738C342.345 131.609 341.969 131.433 341.696 131.211C341.431 130.986 341.267 130.727 341.205 130.435C341.146 130.143 341.192 129.829 341.342 129.49C341.491 129.152 341.743 128.806 342.098 128.452L342.293 128.256C342.704 127.846 343.152 127.503 343.637 127.227C344.126 126.948 344.624 126.735 345.132 126.588C345.641 126.44 346.133 126.357 346.608 126.339C347.084 126.321 347.515 126.363 347.901 126.467C348.394 126.599 348.756 126.775 348.988 126.994C349.225 127.215 349.346 127.469 349.351 127.754C349.36 128.036 349.269 128.342 349.078 128.673C348.89 129.001 348.619 129.342 348.264 129.696L347.878 130.083L342.733 128.705L343.437 128.001L347.404 129.064L347.469 128.999C347.676 128.77 347.829 128.536 347.93 128.295C348.035 128.055 348.04 127.836 347.943 127.636C347.846 127.437 347.596 127.283 347.193 127.175C346.926 127.104 346.637 127.08 346.329 127.103C346.023 127.124 345.708 127.193 345.386 127.312C345.063 127.43 344.74 127.594 344.418 127.803C344.096 128.012 343.782 128.269 343.478 128.573L343.282 128.769C343.043 129.008 342.862 129.246 342.74 129.481C342.625 129.714 342.575 129.933 342.591 130.138C342.611 130.345 342.701 130.526 342.861 130.684C343.026 130.842 343.269 130.964 343.592 131.051C344.008 131.162 344.422 131.195 344.835 131.148C345.248 131.101 345.667 131.002 346.092 130.852L346.39 131.458C346.077 131.583 345.731 131.689 345.353 131.777C344.974 131.864 344.571 131.91 344.142 131.913C343.718 131.918 343.279 131.859 342.824 131.738ZM357.739 131.993L357.04 132.692L353.398 131.716L354.097 131.017L357.739 131.993ZM356.531 128.897L351.488 133.941L350.31 133.625L355.353 128.582L356.531 128.897ZM360.88 130.063L355.837 135.106L354.653 134.789L359.696 129.745L360.88 130.063ZM362.659 135.841L365.255 133.244C365.454 133.046 365.571 132.858 365.607 132.683C365.65 132.505 365.604 132.347 365.468 132.208C365.332 132.069 365.105 131.957 364.787 131.872C364.49 131.792 364.192 131.76 363.892 131.774C363.597 131.789 363.325 131.841 363.076 131.928C362.832 132.016 362.64 132.13 362.5 132.27L361.322 131.954C361.502 131.774 361.745 131.612 362.049 131.469C362.354 131.326 362.696 131.215 363.077 131.136C363.465 131.055 363.868 131.017 364.288 131.023C364.714 131.027 365.136 131.085 365.552 131.196C366.052 131.33 366.432 131.511 366.69 131.737C366.952 131.965 367.065 132.234 367.03 132.544C367.002 132.851 366.8 133.193 366.424 133.569L364.075 135.919C363.907 136.086 363.747 136.27 363.596 136.47C363.449 136.671 363.347 136.851 363.291 137.009L363.217 137.083L361.988 136.754C362.028 136.639 362.113 136.494 362.244 136.32C362.378 136.144 362.516 135.984 362.659 135.841ZM365.058 133.7L364.465 134.309L363.274 133.99C362.939 133.9 362.619 133.84 362.316 133.81C362.015 133.777 361.737 133.775 361.481 133.805C361.225 133.835 360.992 133.897 360.78 133.99C360.572 134.08 360.39 134.202 360.234 134.358C360.076 134.516 359.98 134.674 359.947 134.83C359.915 134.987 359.957 135.13 360.074 135.26C360.199 135.388 360.406 135.491 360.695 135.569C361.056 135.665 361.43 135.695 361.818 135.657C362.205 135.619 362.561 135.541 362.884 135.422C363.211 135.305 363.457 135.172 363.622 135.023L363.71 135.573C363.55 135.695 363.325 135.818 363.035 135.941C362.745 136.065 362.416 136.17 362.049 136.257C361.69 136.341 361.311 136.392 360.914 136.407C360.523 136.421 360.141 136.378 359.768 136.278C359.301 136.152 358.958 135.976 358.739 135.748C358.525 135.521 358.432 135.269 358.46 134.993C358.496 134.715 358.654 134.437 358.934 134.157C359.204 133.887 359.514 133.668 359.863 133.502C360.216 133.332 360.596 133.215 361.005 133.152C361.416 133.085 361.849 133.066 362.302 133.097C362.756 133.128 363.218 133.207 363.689 133.333L365.058 133.7ZM380.185 133.025L379.7 133.51L369.718 138.825L368.527 138.506L378.273 133.411L373.618 132.164L374.327 131.455L380.185 133.025ZM379.692 135.003L380.051 134.644C380.309 134.386 380.62 134.172 380.984 134.001C381.348 133.831 381.736 133.72 382.148 133.669C382.56 133.618 382.961 133.645 383.351 133.749C383.75 133.856 384.026 134.011 384.179 134.213C384.336 134.417 384.385 134.645 384.327 134.897C384.268 135.149 384.11 135.405 383.852 135.662L383.493 136.021C383.242 136.273 382.934 136.484 382.57 136.654C382.21 136.826 381.824 136.937 381.412 136.989C381.004 137.041 380.603 137.014 380.209 136.908C379.814 136.803 379.536 136.647 379.375 136.443C379.218 136.239 379.168 136.011 379.227 135.759C379.285 135.507 379.44 135.255 379.692 135.003ZM380.936 134.881L380.577 135.24C380.434 135.383 380.335 135.528 380.28 135.674C380.229 135.822 380.239 135.957 380.311 136.079C380.387 136.198 380.539 136.288 380.768 136.349C380.997 136.41 381.225 136.422 381.451 136.384C381.68 136.343 381.895 136.269 382.095 136.161C382.294 136.053 382.465 135.927 382.608 135.784L382.967 135.425C383.113 135.279 383.212 135.132 383.263 134.984C383.321 134.835 383.313 134.7 383.238 134.582C383.17 134.461 383.021 134.37 382.792 134.309C382.567 134.248 382.338 134.238 382.104 134.278C381.878 134.316 381.661 134.39 381.454 134.5C381.255 134.608 381.082 134.735 380.936 134.881ZM380.384 140.035L380.748 139.671C381.003 139.416 381.312 139.204 381.676 139.033C382.04 138.863 382.428 138.752 382.84 138.701C383.252 138.65 383.653 138.676 384.044 138.781C384.443 138.888 384.719 139.043 384.871 139.245C385.028 139.449 385.078 139.677 385.019 139.929C384.961 140.181 384.804 140.435 384.549 140.69L384.186 141.053C383.931 141.308 383.621 141.521 383.257 141.691C382.897 141.862 382.511 141.974 382.1 142.025C381.692 142.077 381.291 142.051 380.896 141.945C380.501 141.839 380.225 141.684 380.068 141.481C379.911 141.277 379.86 141.049 379.914 140.795C379.973 140.543 380.129 140.289 380.384 140.035ZM381.633 139.908L381.269 140.272C381.126 140.415 381.026 140.561 380.967 140.711C380.916 140.859 380.927 140.994 380.999 141.115C381.074 141.234 381.226 141.324 381.455 141.385C381.685 141.447 381.912 141.459 382.139 141.421C382.372 141.381 382.589 141.307 382.788 141.199C382.988 141.091 383.161 140.964 383.307 140.818L383.67 140.454C383.817 140.308 383.915 140.161 383.966 140.013C384.021 139.867 384.011 139.734 383.936 139.615C383.868 139.495 383.718 139.403 383.484 139.34C383.259 139.28 383.03 139.27 382.796 139.31C382.57 139.348 382.355 139.42 382.151 139.527C381.952 139.635 381.779 139.762 381.633 139.908ZM387.096 136.1L377.264 140.192L376.91 139.706L386.741 135.615L387.096 136.1ZM393.037 142.261L390.777 141.655L391.454 140.962L393.301 141.457C393.666 141.554 393.996 141.609 394.29 141.621C394.589 141.634 394.853 141.605 395.082 141.532C395.311 141.459 395.503 141.345 395.658 141.19C395.78 141.069 395.849 140.953 395.867 140.844C395.892 140.733 395.864 140.629 395.783 140.532C395.706 140.432 395.577 140.341 395.397 140.257C395.224 140.171 395 140.091 394.724 140.018L393.215 139.613L388.87 143.957L387.692 143.642L392.736 138.598L395.423 139.318C395.86 139.435 396.225 139.569 396.517 139.718C396.813 139.868 397.027 140.034 397.158 140.215C397.297 140.394 397.345 140.588 397.302 140.797C397.26 141.006 397.121 141.229 396.885 141.465C396.732 141.618 396.545 141.751 396.324 141.865C396.102 141.979 395.856 142.066 395.585 142.128C395.313 142.189 395.023 142.221 394.712 142.225C394.405 142.225 394.085 142.193 393.752 142.127L393.037 142.261ZM390.819 144.479L388.132 143.759L389.417 143.217L391.518 143.78C391.845 143.868 392.146 143.911 392.421 143.91C392.7 143.906 392.948 143.862 393.166 143.779C393.392 143.693 393.584 143.571 393.742 143.413C393.901 143.254 393.981 143.104 393.982 142.963C393.991 142.82 393.917 142.689 393.759 142.572C393.605 142.452 393.364 142.348 393.037 142.261L391.248 141.781L391.951 141.095L394.186 141.694L394.351 142.069C394.707 142.192 394.959 142.346 395.108 142.532C395.256 142.717 395.309 142.917 395.268 143.13C395.23 143.341 395.108 143.548 394.903 143.754C394.667 143.99 394.397 144.181 394.094 144.329C393.795 144.477 393.47 144.581 393.12 144.641C392.772 144.698 392.404 144.713 392.015 144.688C391.629 144.659 391.23 144.59 390.819 144.479ZM397.686 144.588L404.541 141.761L405.725 142.079L400.682 147.122L399.497 146.805L403.175 143.127L396.32 145.954L395.148 145.64L400.192 140.596L401.363 140.91L397.686 144.588ZM412.858 149.486L410.538 151.66L409.488 151.379L410.984 149.883L410.086 149.642L410.795 148.934L412.858 149.486ZM407.648 142.594L408.826 142.91L404.491 147.245L407.012 147.92L411.347 143.585L412.532 143.903L408.197 148.238L410.712 148.911L415.047 144.577L416.225 144.892L411.181 149.936L402.605 147.637L407.648 142.594ZM416.214 151.402C415.734 151.274 415.358 151.098 415.086 150.875C414.82 150.651 414.657 150.392 414.594 150.099C414.536 149.808 414.581 149.493 414.731 149.155C414.881 148.817 415.133 148.471 415.487 148.116L415.683 147.921C416.093 147.511 416.541 147.168 417.026 146.892C417.515 146.613 418.014 146.4 418.522 146.252C419.03 146.105 419.522 146.022 419.998 146.004C420.473 145.985 420.904 146.028 421.291 146.131C421.783 146.263 422.146 146.439 422.378 146.659C422.614 146.88 422.735 147.133 422.741 147.418C422.749 147.7 422.658 148.007 422.467 148.338C422.279 148.666 422.008 149.007 421.654 149.361L421.267 149.748L416.122 148.369L416.826 147.666L420.793 148.728L420.858 148.663C421.065 148.435 421.219 148.2 421.32 147.959C421.425 147.72 421.429 147.5 421.332 147.301C421.236 147.102 420.986 146.948 420.582 146.84C420.315 146.768 420.027 146.744 419.718 146.768C419.412 146.788 419.098 146.858 418.775 146.976C418.452 147.095 418.129 147.258 417.807 147.467C417.485 147.677 417.172 147.934 416.867 148.238L416.671 148.434C416.432 148.673 416.251 148.91 416.129 149.146C416.014 149.379 415.965 149.598 415.98 149.803C416 150.009 416.09 150.191 416.25 150.348C416.415 150.507 416.659 150.629 416.981 150.715C417.397 150.827 417.812 150.859 418.225 150.812C418.638 150.765 419.056 150.667 419.481 150.516L419.779 151.122C419.466 151.247 419.12 151.354 418.742 151.441C418.364 151.529 417.96 151.575 417.532 151.578C417.107 151.583 416.668 151.524 416.214 151.402ZM422.458 151.657L421.764 152.351C421.481 152.634 421.085 152.906 420.576 153.168C420.064 153.433 419.526 153.623 418.962 153.74L418.634 153.221C418.906 153.121 419.161 153.011 419.397 152.893C419.63 152.779 419.846 152.651 420.045 152.512C420.245 152.376 420.429 152.224 420.597 152.057L421.306 151.348L422.458 151.657ZM325.324 139.446L324.624 140.145L320.982 139.169L321.681 138.47L325.324 139.446ZM324.116 136.35L319.072 141.393L317.895 141.078L322.938 136.034L324.116 136.35ZM328.465 137.515L323.421 142.559L322.237 142.241L327.28 137.198L328.465 137.515ZM331.642 138.367L326.599 143.41L325.414 143.093L330.458 138.049L331.642 138.367ZM331.706 136.688C331.846 136.548 332.022 136.445 332.232 136.38C332.448 136.315 332.67 136.313 332.899 136.375C333.124 136.435 333.248 136.529 333.27 136.658C333.297 136.787 333.241 136.922 333.101 137.061C332.967 137.195 332.791 137.293 332.571 137.357C332.359 137.418 332.141 137.419 331.916 137.358C331.686 137.297 331.559 137.204 331.533 137.079C331.515 136.952 331.573 136.821 331.706 136.688ZM332.774 142.281L333.011 138.733L334.431 139.114L334.126 141.68L335.501 142.048L334.569 142.762L332.774 142.281ZM333.505 142.365L329.222 144.113L327.732 143.714L333.385 141.541L333.505 142.365ZM338.194 140.122L333.151 145.166L331.973 144.85L337.016 139.807L338.194 140.122ZM342.212 141.199L336.753 143.347L334.958 142.866L335.533 142.057L336.914 142.427L340.785 140.817L342.212 141.199ZM335.908 145.904L336.186 143.083L337.568 142.661L337.398 146.304L335.908 145.904ZM346.828 147.377L353.068 144.108L354.201 144.411L346.089 148.632L345.274 148.414L347.261 142.552L348.394 142.855L346.828 147.377ZM348.05 142.763L343.007 147.807L341.829 147.491L346.873 142.448L348.05 142.763ZM348.317 149.23L353.361 144.186L354.545 144.504L349.502 149.547L348.317 149.23ZM354.038 149.031L360.893 146.205L362.078 146.522L357.034 151.565L355.85 151.248L359.528 147.57L352.673 150.397L351.501 150.083L356.544 145.039L357.716 145.353L354.038 149.031ZM366.456 150.467L365.757 151.166L362.115 150.19L362.814 149.491L366.456 150.467ZM365.249 147.372L360.205 152.415L359.027 152.099L364.071 147.056L365.249 147.372ZM369.597 148.537L364.554 153.58L363.37 153.263L368.413 148.219L369.597 148.537ZM368.909 154.085L375.347 150.077L376.608 150.415L368.023 155.497C367.835 155.604 367.616 155.715 367.367 155.829C367.119 155.948 366.849 156.051 366.557 156.138C366.266 156.226 365.965 156.279 365.655 156.298C365.346 156.322 365.034 156.292 364.72 156.207C364.627 156.182 364.517 156.141 364.392 156.084C364.266 156.027 364.18 155.984 364.133 155.955L364.825 155.255C364.856 155.267 364.906 155.284 364.975 155.307C365.045 155.333 365.095 155.351 365.125 155.358C365.392 155.43 365.646 155.465 365.886 155.462C366.122 155.462 366.365 155.419 366.613 155.332C366.863 155.249 367.138 155.116 367.44 154.933L368.909 154.085ZM372.023 149.187L369.897 153.582L369.294 154.572L368.13 154.662L370.737 148.842L372.023 149.187ZM382.007 151.862L381.294 152.575L377.964 151.683L378.677 150.97L382.007 151.862ZM383.045 152.14L378.002 157.183L376.824 156.868L381.867 151.824L383.045 152.14ZM378.391 150.893L379.575 151.21L376.963 153.596C376.558 153.964 376.176 154.283 375.82 154.554C375.47 154.823 375.135 155.044 374.816 155.219C374.5 155.394 374.192 155.524 373.892 155.609C373.599 155.693 373.305 155.734 373.009 155.733C372.717 155.73 372.418 155.687 372.112 155.605L371.743 155.506L372.502 154.747L372.771 154.801C372.963 154.84 373.149 154.851 373.329 154.832C373.514 154.815 373.702 154.767 373.893 154.688C374.088 154.606 374.295 154.49 374.515 154.34C374.739 154.192 374.98 154.008 375.236 153.789C375.497 153.571 375.787 153.314 376.105 153.017L378.391 150.893ZM382.053 155.143L382.16 155.035C382.524 154.672 382.933 154.354 383.388 154.082C383.846 153.807 384.326 153.591 384.828 153.433C385.332 153.273 385.842 153.181 386.355 153.157C386.872 153.13 387.37 153.181 387.85 153.309C388.334 153.439 388.704 153.621 388.96 153.855C389.223 154.087 389.374 154.356 389.412 154.662C389.458 154.966 389.396 155.294 389.227 155.646C389.06 155.996 388.795 156.352 388.432 156.716L388.325 156.823C387.961 157.187 387.552 157.504 387.097 157.777C386.642 158.049 386.16 158.264 385.651 158.423C385.149 158.58 384.64 158.673 384.123 158.7C383.614 158.725 383.117 158.672 382.633 158.543C382.149 158.413 381.778 158.233 381.519 158.002C381.263 157.768 381.112 157.499 381.066 157.195C381.028 156.889 381.091 156.561 381.258 156.212C381.424 155.863 381.689 155.506 382.053 155.143ZM383.338 155.351L383.231 155.458C382.979 155.71 382.782 155.958 382.639 156.204C382.499 156.446 382.424 156.674 382.414 156.888C382.409 157.104 382.48 157.294 382.626 157.459C382.776 157.622 383.015 157.747 383.341 157.834C383.664 157.921 383.995 157.948 384.333 157.917C384.678 157.883 385.017 157.803 385.35 157.675C385.682 157.547 385.999 157.384 386.3 157.185C386.608 156.984 386.889 156.757 387.14 156.506L387.248 156.399C387.496 156.15 387.688 155.904 387.824 155.661C387.967 155.415 388.041 155.185 388.047 154.97C388.059 154.752 387.992 154.561 387.846 154.396C387.703 154.231 387.468 154.105 387.142 154.018C386.819 153.931 386.485 153.905 386.139 153.938C385.798 153.973 385.457 154.055 385.118 154.185C384.786 154.313 384.467 154.477 384.163 154.68C383.862 154.879 383.587 155.102 383.338 155.351ZM396.83 155.834L396.117 156.547L392.933 155.694L388.603 160.024L387.425 159.709L392.469 154.665L396.83 155.834ZM394.838 158.568L394.946 158.461C395.309 158.098 395.718 157.78 396.174 157.508C396.632 157.233 397.112 157.016 397.613 156.859C398.118 156.699 398.627 156.607 399.141 156.583C399.658 156.556 400.156 156.607 400.636 156.735C401.119 156.865 401.489 157.047 401.745 157.281C402.008 157.513 402.159 157.782 402.198 158.088C402.244 158.392 402.182 158.72 402.012 159.072C401.846 159.422 401.581 159.778 401.217 160.142L401.11 160.249C400.747 160.612 400.337 160.93 399.882 161.202C399.427 161.474 398.945 161.69 398.436 161.849C397.935 162.006 397.425 162.098 396.909 162.125C396.399 162.15 395.902 162.098 395.418 161.968C394.935 161.839 394.563 161.659 394.304 161.428C394.049 161.194 393.898 160.925 393.852 160.621C393.813 160.315 393.877 159.987 394.043 159.638C394.21 159.288 394.475 158.932 394.838 158.568ZM396.124 158.777L396.016 158.884C395.765 159.136 395.567 159.384 395.424 159.63C395.284 159.872 395.209 160.1 395.2 160.314C395.194 160.529 395.265 160.72 395.412 160.885C395.562 161.047 395.8 161.172 396.127 161.26C396.45 161.346 396.78 161.374 397.118 161.342C397.464 161.309 397.803 161.228 398.135 161.101C398.467 160.973 398.784 160.81 399.085 160.611C399.394 160.41 399.674 160.183 399.926 159.932L400.033 159.824C400.282 159.576 400.474 159.33 400.61 159.086C400.753 158.841 400.827 158.611 400.832 158.395C400.845 158.178 400.778 157.987 400.631 157.822C400.489 157.657 400.254 157.531 399.927 157.444C399.604 157.357 399.27 157.331 398.925 157.364C398.583 157.399 398.243 157.481 397.903 157.611C397.571 157.738 397.253 157.903 396.948 158.105C396.647 158.304 396.372 158.528 396.124 158.777ZM408.463 163.892L414.703 160.623L415.837 160.927L407.724 165.148L406.909 164.929L408.896 159.067L410.03 159.371L408.463 163.892ZM409.686 159.278L404.642 164.322L403.464 164.006L408.508 158.963L409.686 159.278ZM409.953 165.745L414.996 160.701L416.18 161.019L411.137 166.062L409.953 165.745ZM419.358 161.87L414.314 166.913L413.13 166.596L418.173 161.553L419.358 161.87ZM419.422 160.191C419.562 160.051 419.737 159.948 419.948 159.883C420.163 159.818 420.386 159.817 420.615 159.878C420.84 159.939 420.963 160.033 420.986 160.161C421.013 160.29 420.956 160.425 420.816 160.565C420.683 160.698 420.506 160.797 420.287 160.86C420.075 160.922 419.856 160.922 419.631 160.862C419.402 160.8 419.275 160.707 419.249 160.582C419.231 160.455 419.288 160.325 419.422 160.191ZM419.578 167.544C419.858 167.619 420.159 167.646 420.48 167.626C420.802 167.606 421.112 167.543 421.411 167.438C421.713 167.33 421.969 167.184 422.18 167L423.301 167.3C422.981 167.593 422.565 167.834 422.053 168.024C421.547 168.211 421.012 168.33 420.446 168.379C419.883 168.425 419.357 168.383 418.869 168.252C418.351 168.113 417.966 167.925 417.713 167.688C417.465 167.452 417.33 167.184 417.308 166.882C417.291 166.582 417.369 166.264 417.543 165.929C417.725 165.591 417.985 165.253 418.324 164.914L418.519 164.719C418.858 164.38 419.24 164.076 419.664 163.808C420.096 163.538 420.554 163.319 421.037 163.153C421.525 162.989 422.027 162.891 422.542 162.859C423.062 162.829 423.581 162.883 424.099 163.022C424.638 163.167 425.028 163.374 425.27 163.643C425.515 163.91 425.614 164.212 425.566 164.55C425.526 164.886 425.343 165.231 425.016 165.585L423.895 165.284C424.082 165.071 424.19 164.861 424.218 164.656C424.249 164.451 424.196 164.268 424.058 164.105C423.927 163.94 423.705 163.815 423.391 163.731C423.03 163.634 422.673 163.606 422.322 163.645C421.977 163.683 421.644 163.771 421.323 163.91C421.008 164.046 420.712 164.213 420.434 164.41C420.164 164.606 419.918 164.814 419.697 165.034L419.501 165.23C419.281 165.451 419.093 165.676 418.938 165.906C418.783 166.137 418.689 166.358 418.655 166.569C418.625 166.782 418.678 166.974 418.815 167.144C418.958 167.313 419.213 167.446 419.578 167.544ZM426.831 167.218L428.104 167.559L423.706 169.43L422.433 169.089L426.831 167.218ZM430.456 164.844L433.334 165.615L428.29 170.658L427.113 170.343L431.457 165.998L429.757 165.543C429.421 165.453 429.106 165.422 428.809 165.449C428.516 165.473 428.256 165.537 428.028 165.641C427.8 165.745 427.616 165.868 427.476 166.007C427.339 166.144 427.251 166.288 427.213 166.439C427.178 166.588 427.216 166.728 427.326 166.86C427.436 166.992 427.642 167.098 427.943 167.179L430.102 167.757L429.393 168.466L427.235 167.887C426.84 167.781 426.529 167.649 426.301 167.489C426.073 167.33 425.921 167.153 425.845 166.959C425.773 166.763 425.775 166.556 425.851 166.34C425.93 166.121 426.08 165.901 426.301 165.681C426.521 165.46 426.782 165.272 427.083 165.116C427.389 164.962 427.721 164.844 428.082 164.763C428.447 164.684 428.828 164.65 429.225 164.662C429.63 164.672 430.04 164.732 430.456 164.844ZM430.29 171.194L435.333 166.151L436.511 166.466L432.176 170.801L435.347 171.651L439.682 167.316L440.866 167.633L435.823 172.677L430.29 171.194ZM437.346 172.187L435.027 174.361L433.977 174.079L435.473 172.583L434.575 172.342L435.283 171.634L437.346 172.187ZM441.794 171.227L443.067 171.568L438.669 173.439L437.396 173.098L441.794 171.227ZM445.419 168.853L448.297 169.624L443.254 174.668L442.076 174.352L446.42 170.008L444.72 169.552C444.384 169.462 444.069 169.431 443.773 169.458C443.48 169.482 443.219 169.546 442.991 169.65C442.763 169.755 442.579 169.877 442.439 170.017C442.302 170.153 442.215 170.297 442.176 170.449C442.141 170.597 442.179 170.737 442.289 170.869C442.399 171.001 442.605 171.107 442.906 171.188L445.065 171.766L444.356 172.475L442.198 171.897C441.803 171.791 441.492 171.658 441.264 171.499C441.036 171.339 440.884 171.162 440.809 170.969C440.736 170.772 440.738 170.566 440.814 170.35C440.893 170.131 441.043 169.911 441.264 169.69C441.484 169.469 441.745 169.281 442.046 169.126C442.352 168.971 442.685 168.853 443.045 168.773C443.41 168.693 443.791 168.659 444.188 168.671C444.593 168.681 445.003 168.742 445.419 168.853Z" fill="white"/>
<path fill-rule="evenodd" clip-rule="evenodd" d="M322.356 117.338C322.259 116.974 321.669 116.816 321.039 116.985L311.359 119.579L311.712 120.896L318.638 119.04L312.102 125.576L313.965 126.076L320.501 119.539L321.572 123.538L323.854 122.927L322.356 117.338Z" fill="#00C1FF"/>
</g>
<defs>
<clipPath id="clip0_66_2403">
<rect width="541" height="295" rx="16" fill="white"/>
</clipPath>
</defs>
</svg>
